<?xml version="1.0" standalone="no"?>
<!DOCTYPE svg PUBLIC "-//W3C//DTD SVG 20010904//EN"
 "http://www.w3.org/TR/2001/REC-SVG-20010904/DTD/svg10.dtd">
<svg version="1.0" xmlns="http://www.w3.org/2000/svg"
 width="700.000000pt" height="700.000000pt" viewBox="0 0 700.000000 700.000000"
 preserveAspectRatio="xMidYMid meet">
<metadata>
Created by potrace 1.14, written by Peter Selinger 2001-2017
</metadata>
<g transform="translate(0.000000,700.000000) scale(0.100000,-0.100000)"
fill="#000000" stroke="none">
<path d="M355 6729 c-143 -15 -256 -96 -319 -229 l-31 -65 -3 -2651 c-2 -2948
-8 -2701 65 -2812 55 -82 150 -148 243 -168 34 -8 4348 -14 4362 -7 4 2 0 20
-9 41 -23 55 -13 166 20 234 l27 53 -36 34 c-19 18 -46 50 -60 70 l-24 36
-2060 0 -2060 0 0 2033 0 2032 2798 -2 2797 -3 1 -1305 c1 -718 2 -1315 3
-1326 1 -17 9 -23 44 -28 61 -10 140 -66 183 -130 l36 -54 36 15 c21 9 67 16
103 17 l66 1 0 1943 0 1943 -23 65 c-44 127 -132 210 -269 254 -32 11 -586 13
-2935 14 -1592 1 -2922 -2 -2955 -5z m4301 -536 c52 -37 64 -76 64 -202 0
-187 -33 -223 -208 -226 -88 -1 -111 2 -146 19 -62 32 -78 68 -80 189 -3 120
6 162 42 200 37 39 71 47 192 44 90 -2 109 -5 136 -24z m670 1 c60 -45 67 -63
69 -190 1 -100 -2 -123 -19 -158 -33 -65 -80 -83 -209 -81 -94 2 -110 5 -142
26 -51 35 -65 80 -65 207 0 126 15 164 76 199 35 20 51 22 151 20 95 -2 116
-5 139 -23z m680 -1 c52 -37 64 -76 64 -203 0 -95 -3 -118 -21 -150 -34 -59
-66 -73 -187 -75 -88 -1 -111 1 -145 19 -65 33 -81 70 -82 195 -2 120 5 154
37 189 41 44 74 53 193 50 95 -3 114 -6 141 -25z"/>
<path d="M3523 4827 c-68 -35 -89 -68 -131 -197 -11 -36 -50 -155 -85 -265
-36 -110 -97 -301 -137 -425 -40 -124 -82 -256 -95 -295 -13 -38 -46 -140 -73
-225 -28 -85 -89 -274 -136 -420 -168 -524 -160 -491 -140 -559 35 -118 181
-180 291 -123 79 41 79 40 233 522 40 124 87 270 105 325 18 55 67 208 109
340 43 132 101 314 131 405 197 607 225 700 225 740 0 146 -164 244 -297 177z"/>
<path d="M2490 4260 c-37 -11 -68 -26 -363 -164 -55 -25 -100 -46 -102 -46 -2
0 -63 -29 -137 -64 -73 -35 -214 -101 -313 -146 -99 -46 -192 -92 -207 -102
-48 -33 -81 -102 -80 -166 1 -106 40 -161 152 -214 126 -60 236 -111 285 -133
28 -12 88 -41 135 -63 47 -21 114 -53 150 -69 36 -17 158 -74 272 -127 211
-98 238 -105 317 -90 46 10 117 76 133 127 26 78 4 170 -54 224 -20 19 -135
74 -620 300 -43 20 -78 39 -78 42 1 3 65 35 143 71 137 62 250 114 443 205
136 64 176 113 176 216 0 97 -56 173 -147 198 -45 12 -69 13 -105 1z"/>
<path d="M3935 4259 c-113 -32 -174 -179 -120 -289 37 -74 -1 -52 570 -317 88
-41 164 -78 168 -82 4 -4 -25 -23 -65 -41 -40 -18 -120 -56 -178 -83 -58 -27
-130 -60 -160 -74 -298 -138 -318 -151 -346 -236 -25 -75 -8 -148 49 -209 62
-67 163 -74 280 -20 37 18 95 45 130 61 34 16 166 77 292 136 127 59 259 121
295 137 211 98 318 152 338 171 61 57 81 178 41 252 -38 71 -28 65 -439 255
-146 68 -303 141 -350 162 -47 22 -119 56 -160 76 -193 90 -228 104 -270 107
-25 1 -58 -1 -75 -6z"/>
<path d="M5753 2419 c-29 -11 -36 -41 -37 -168 l-1 -106 -78 -27 c-43 -15 -84
-32 -91 -38 -10 -8 -22 0 -47 31 -42 51 -98 117 -120 139 -13 14 -32 17 -69
11 -3 -1 -16 -11 -30 -23 -14 -13 -62 -54 -107 -92 -101 -84 -105 -102 -41
-180 24 -28 45 -53 48 -56 27 -23 59 -80 54 -94 -3 -9 -9 -16 -13 -16 -5 0
-75 -126 -76 -137 0 -1 -36 5 -80 13 -149 27 -172 27 -193 6 -11 -11 -23 -41
-26 -67 -4 -26 -10 -57 -12 -68 -2 -12 -10 -57 -16 -100 -16 -108 -16 -107
187 -141 l70 -11 11 -65 c6 -36 14 -81 18 -100 l7 -35 -93 -54 c-112 -65 -128
-78 -128 -105 0 -27 136 -263 158 -275 27 -13 46 -7 153 54 l100 57 47 -44
c26 -24 60 -53 76 -64 26 -19 28 -24 18 -50 -5 -16 -22 -60 -36 -99 -36 -97
-39 -119 -18 -138 24 -21 250 -107 283 -107 36 0 48 17 94 139 l40 106 90 -2
c50 -1 95 -2 101 -2 6 -1 21 -29 33 -63 73 -207 65 -203 244 -137 72 26 136
54 143 61 22 23 19 51 -20 161 -23 63 -35 111 -30 116 5 5 40 34 77 65 l68 57
57 -33 c31 -18 66 -38 77 -45 94 -57 120 -51 170 42 15 28 45 80 66 116 37 62
43 89 26 116 -4 7 -53 38 -108 69 -112 63 -103 49 -85 144 3 14 7 43 11 65 3
22 9 43 13 46 6 6 59 16 177 35 85 13 93 31 70 154 -8 47 -18 106 -22 132 -3
26 -15 57 -25 68 -22 24 -54 23 -200 -5 -40 -7 -73 -13 -74 -12 -1 1 -16 29
-33 62 -18 33 -39 72 -48 86 -17 26 -16 27 60 117 101 119 101 128 1 212 -162
136 -176 144 -212 112 -10 -9 -48 -51 -82 -92 -35 -41 -67 -76 -72 -78 -4 -2
-21 3 -36 11 -16 7 -57 22 -90 32 l-62 19 0 121 c0 166 5 162 -176 162 -77 1
-149 -3 -161 -8z m293 -768 c124 -55 205 -196 190 -333 -13 -124 -84 -225
-195 -276 -47 -22 -70 -27 -141 -26 -75 0 -92 3 -146 31 -69 36 -120 88 -155
158 -20 42 -24 65 -24 140 0 78 4 98 27 146 83 167 272 235 444 160z"/>
</g>
</svg>
