<svg id="visual" viewBox="0 0 900 600" width="900" height="600" xmlns="http://www.w3.org/2000/svg" xmlns:xlink="http://www.w3.org/1999/xlink" version="1.1"><rect width="900" height="600" fill="#ffffff"></rect><g><g transform="translate(11 471)"><path d="M81.7 -97.3C104.5 -78.3 120.6 -51.2 125.7 -22.2C130.9 6.9 125.1 37.9 109.4 61.3C93.6 84.7 68 100.5 41.4 107.4C14.8 114.4 -12.8 112.6 -35.8 102.5C-58.9 92.3 -77.4 73.8 -91.4 51.7C-105.5 29.6 -115.1 3.8 -110.9 -19.5C-106.7 -42.8 -88.8 -63.7 -68.1 -83.1C-47.3 -102.4 -23.6 -120.3 2.9 -123.8C29.5 -127.3 59 -116.3 81.7 -97.3Z" fill="none" stroke="#f8ecff" stroke-width="20"></path></g><g transform="translate(408 586)"><path d="M62.5 -73.2C80.2 -59.6 93.2 -39.2 98.1 -16.5C103 6.1 99.8 31 88.3 51.1C76.8 71.2 57 86.6 34.7 94.2C12.5 101.7 -12.2 101.4 -33.6 93.2C-55.1 85 -73.4 69 -86.4 48.7C-99.4 28.5 -107.2 4.1 -103.2 -18.1C-99.2 -40.4 -83.4 -60.5 -64.2 -73.7C-45.1 -87 -22.5 -93.5 -0.1 -93.4C22.4 -93.4 44.8 -86.7 62.5 -73.2Z" fill="none" stroke="#f8ecff" stroke-width="20"></path></g><g transform="translate(607 207)"><path d="M67 -81.3C84.6 -65.2 94.9 -41.9 99.1 -17.6C103.2 6.7 101.1 31.9 89.9 52.5C78.7 73 58.4 88.9 36.3 94.7C14.3 100.5 -9.6 96.2 -32.6 88.4C-55.7 80.5 -77.9 69.2 -88.8 50.9C-99.7 32.7 -99.3 7.6 -96.4 -18.4C-93.5 -44.5 -88.1 -71.5 -71.6 -87.8C-55.1 -104.2 -27.6 -109.8 -1.4 -108.1C24.7 -106.5 49.5 -97.5 67 -81.3Z" fill="none" stroke="#f8ecff" stroke-width="20"></path></g><g transform="translate(169 215)"><path d="M63.2 -73.6C80.7 -60.7 92.9 -39.6 96.2 -17.5C99.5 4.7 94 27.9 81.9 45.6C69.7 63.3 50.8 75.6 30.8 81.6C10.7 87.6 -10.5 87.5 -28.2 79.9C-45.8 72.4 -59.9 57.6 -68.8 40.5C-77.7 23.4 -81.5 4.2 -79.6 -15.4C-77.8 -35 -70.3 -54.9 -56.1 -68.4C-41.9 -81.9 -20.9 -88.8 1 -90C22.9 -91.2 45.8 -86.5 63.2 -73.6Z" fill="none" stroke="#f8ecff" stroke-width="20"></path></g><g transform="translate(853 12)"><path d="M64.4 -75.6C81.6 -62.4 92.4 -40.3 94.4 -18.2C96.3 3.8 89.5 25.7 77.9 44.1C66.3 62.5 49.9 77.3 29.8 86.6C9.8 95.9 -13.9 99.7 -33 92.1C-52.1 84.6 -66.5 65.7 -75.5 45.7C-84.4 25.8 -87.9 4.8 -85.6 -16.2C-83.2 -37.3 -75 -58.5 -59.8 -72.1C-44.6 -85.7 -22.3 -91.8 0.7 -92.6C23.6 -93.4 47.2 -88.9 64.4 -75.6Z" fill="none" stroke="#f8ecff" stroke-width="20"></path></g><g transform="translate(827 494)"><path d="M66 -78.4C83.6 -64 94.5 -41.3 97.9 -17.9C101.2 5.5 97 29.5 85.4 49C73.8 68.5 54.8 83.5 32.8 92.5C10.8 101.5 -14.2 104.6 -36.9 97.9C-59.7 91.1 -80.1 74.6 -91.8 53.5C-103.4 32.3 -106.2 6.6 -99.5 -15.1C-92.8 -36.8 -76.6 -54.4 -58.4 -68.7C-40.3 -83 -20.1 -94 2.1 -96.4C24.2 -98.9 48.5 -92.7 66 -78.4Z" fill="none" stroke="#f8ecff" stroke-width="20"></path></g></g></svg>