<svg width="540" height="960" xmlns="http://www.w3.org/2000/svg"><path fill="#fff" d="M0 0h540v960H0z"/><path d="M281.3 574.6c12.6 15.7 15.5 37.9 19.7 60.1 4.3 22.2 9.9 44.5 2.1 59.8-7.8 15.4-29.1 23.9-49.4 28.2-20.2 4.3-39.4 4.5-55.3-2.2-15.9-6.7-28.6-20.3-41.8-36.7-13.3-16.4-27.1-35.7-25.8-53.9 1.2-18.1 17.6-35.3 35.7-50 18.1-14.7 37.8-27 58.8-28.5 21.1-1.6 43.4 7.5 56 23.2ZM106.2 786.6c9.7 5.9 17.2 16.5 20.1 28.6 2.9 12.1 1.2 25.7-5.2 36.3-6.4 10.7-17.5 18.4-29.7 22.7-12.2 4.3-25.5 5.1-35.7.2-10.2-5-17.2-15.7-23.9-26.9-6.7-11.1-13.2-22.7-13.4-35.2-.3-12.5 5.7-26 15.8-31.9 10.1-5.9 24.5-4.1 37.5-2.5 13.1 1.5 24.9 2.7 34.5 8.7ZM566.4 375.3c8.6 7.8 12.7 20.3 14.2 32.5 1.4 12.3.2 24.5-5.5 33.6-5.8 9.1-16.2 15.1-27.7 20.4-11.5 5.2-24.2 9.8-34.3 6.5-10.2-3.4-17.7-14.6-22.5-25.9-4.8-11.4-6.9-22.8-5.6-34.4 1.2-11.5 5.7-23.2 14.1-31.1 8.4-7.8 20.6-11.9 33.2-12.3 12.6-.4 25.6 2.9 34.1 10.7ZM536.4 642c13.9 8.8 23.9 25.1 24.6 41.2.8 16.1-7.9 32-17.8 45.4-9.9 13.4-21.1 24.3-34.9 30.3-13.8 6.1-30.2 7.3-47.6 4.1-17.4-3.2-35.8-10.9-45.8-25-10.1-14.1-11.8-34.6-8.5-54.4 3.3-19.8 11.6-38.9 25.9-47.6 14.2-8.8 34.5-7.2 53.4-5.7 19 1.5 36.8 2.9 50.7 11.7ZM181.3 158.6c8.6 7.9 15.9 16.6 17.3 26.1 1.4 9.5-3.2 19.8-9.3 28.1-6.2 8.4-13.8 14.7-22.3 17.2-8.6 2.6-18 1.3-26.6-2-8.6-3.3-16.4-8.5-20.9-15.9-4.6-7.3-5.9-16.8-4.7-26.3 1.1-9.4 4.8-18.9 11.6-27 6.7-8.2 16.7-15.1 26.6-15 9.9 0 19.7 7 28.3 14.8ZM335.6 841.3c9.5 5.7 16.6 16.6 18 28.1 1.5 11.5-2.7 23.5-9.9 31.6-7.2 8.2-17.3 12.6-27.5 15.6-10.1 3.1-20.2 4.8-30.4 2.9-10.3-2-20.8-7.5-25.6-16.2-4.9-8.7-4.1-20.5-.6-30.3 3.5-9.8 9.7-17.7 17.2-23.7s16.4-10.2 26.8-12.1c10.4-1.9 22.5-1.5 32 4.1ZM62.5 372.8c15.6 12.8 26 32.2 28.3 52.1 2.3 19.9-3.3 40.1-15.2 53.4-11.8 13.2-29.8 19.3-47.6 25.6-17.8 6.4-35.4 12.9-51.8 9.7-16.5-3.1-31.9-15.9-38.7-31.7-6.7-15.8-4.9-34.5-2-53.5 2.9-19 6.8-38.2 18.6-51.7 11.7-13.5 31.3-21.2 51.6-22 20.2-.8 41.1 5.4 56.8 18.1ZM541.7 122.8c12.2 13.6 16.3 33.5 20.1 53.5 3.7 20.1 7.1 40.4-1.6 52.3-8.6 12-29.2 15.5-47.9 20.6-18.7 5.2-35.4 12-50.8 9.1-15.4-2.9-29.6-15.5-39.2-31.3-9.6-15.7-14.7-34.5-12.6-52.9 2.2-18.4 11.6-36.5 26-49.8 14.4-13.2 33.9-21.7 53.7-22.1 19.8-.5 40.1 6.9 52.3 20.6ZM336.3-16.2c7.6 8.9 12.6 18.5 16 29.6 3.5 11.2 5.5 23.8 1.9 36.3-3.6 12.5-12.7 24.9-25.1 30.3-12.4 5.5-28.1 3.9-38.7-3.5-10.6-7.4-16.1-20.6-22.8-32.9-6.8-12.3-14.9-23.5-13.8-33.8 1-10.3 11.1-19.7 21.7-28.1 10.5-8.4 21.5-15.9 32.2-15.5 10.6.4 20.9 8.7 28.6 17.6ZM358.3 350.6c17.7 9.7 32.7 27.7 35.8 47.5 3.2 19.8-5.5 41.5-17.8 59.3-12.3 17.8-28.2 31.9-47.2 39.8-19.1 8-41.2 9.9-57.7 1.6s-27.3-26.8-34.6-44.7c-7.3-18-11-35.4-9-52.6 2.1-17.2 10-34.2 23-44.8 13-10.6 31.1-14.7 50.3-16 19.2-1.4 39.5.1 57.2 9.9ZM588.8 872.4c12.6 11.7 18.8 30 21.5 48.4 2.6 18.4 1.8 36.9-6.3 51.7-8.1 14.8-23.3 25.9-38.8 28-15.5 2-31.3-4.9-45.8-11.8-14.4-6.8-27.6-13.6-37.4-25.1-9.8-11.4-16.3-27.5-13.6-41.7 2.8-14.2 14.8-26.5 27.9-38.1 13.2-11.6 27.4-22.3 44.1-25.2 16.7-2.9 35.7 2.2 48.4 13.8ZM60.5-45.4C74.3-34.9 88-23.2 90-9.8 92.1 3.6 82.5 18.9 73 33c-9.6 14.1-19 27.1-32.5 34-13.4 7-30.7 8.1-44.9 2.1-14.2-5.9-25.2-18.8-30.1-32.6-4.9-13.8-3.6-28.6-.9-42.9 2.8-14.3 7-28.2 16.3-39.5C-9.8-57.3 4.6-66 18.7-65.7c14.2.3 28 9.7 41.8 20.3Z" fill="none" stroke="#F6ECFE" stroke-width="20"/></svg>