<svg width="900" height="600" xmlns="http://www.w3.org/2000/svg"><path fill="#fff" d="M0 0h900v600H0z"/><path d="M92.7 373.7c22.8 19 38.9 46.1 44 75.1 5.2 29.1-.6 60.1-16.3 83.5-15.8 23.4-41.4 39.2-68 46.1-26.6 7-54.2 5.2-77.2-4.9-23.1-10.2-41.6-28.7-55.6-50.8-14.1-22.1-23.7-47.9-19.5-71.2 4.2-23.3 22.1-44.2 42.8-63.6 20.8-19.3 44.5-37.2 71-40.7 26.6-3.5 56.1 7.5 78.8 26.5ZM470.5 512.8c17.7 13.6 30.7 34 35.6 56.7 4.9 22.6 1.7 47.5-9.8 67.6-11.5 20.1-31.3 35.5-53.6 43.1-22.2 7.5-46.9 7.2-68.3-1-21.5-8.2-39.8-24.2-52.8-44.5-13-20.2-20.8-44.6-16.8-66.8 4-22.3 19.8-42.4 39-55.6 19.1-13.3 41.7-19.8 64.1-19.7 22.5 0 44.9 6.7 62.6 20.2ZM674 125.7c17.6 16.1 27.9 39.4 32.1 63.7 4.1 24.3 2 49.5-9.2 70.1-11.2 20.5-31.5 36.4-53.6 42.2-22 5.8-45.9 1.5-68.9-6.3-23.1-7.9-45.3-19.2-56.2-37.5-10.9-18.2-10.5-43.3-7.6-69.3 2.9-26.1 8.3-53.1 24.8-69.4 16.5-16.4 44-22 70.2-20.3 26.1 1.6 50.9 10.6 68.4 26.8ZM232.2 141.4c17.5 12.9 29.7 34 33 56.1 3.3 22.2-2.2 45.4-14.3 63.1-12.2 17.7-31.1 30-51.1 36-20.1 6-41.3 5.9-59-1.7-17.6-7.5-31.7-22.3-40.6-39.4-8.9-17.1-12.7-36.3-10.8-55.9 1.8-19.6 9.3-39.5 23.5-53s35.2-20.4 57.1-21.6c21.9-1.2 44.8 3.5 62.2 16.4ZM917.4-63.6c17.2 13.2 28 35.3 30 57.4 1.9 22-4.9 43.9-16.5 62.3s-28 33.2-48.1 42.5c-20 9.3-43.7 13.1-62.8 5.5-19.1-7.5-33.5-26.4-42.5-46.4-8.9-19.9-12.4-40.9-10.1-61.9 2.4-21.1 10.6-42.3 25.8-55.9 15.2-13.6 37.5-19.7 60.5-20.5 22.9-.8 46.5 3.7 63.7 17ZM893 415.6c17.6 14.4 28.5 37.1 31.9 60.5 3.3 23.4-.9 47.4-12.5 66.9-11.6 19.5-30.6 34.5-52.6 43.5s-47 12.1-69.7 5.4c-22.8-6.8-43.2-23.3-54.9-44.4-11.6-21.2-14.4-46.9-7.7-68.6 6.7-21.7 22.9-39.3 41.1-53.6 18.1-14.3 38.3-25.3 60.5-27.7 22.1-2.5 46.4 3.7 63.9 18Z" fill="none" stroke="#f8ecff" stroke-width="20"/></svg>