<svg id="visual" viewBox="0 0 540 960" width="540" height="960" xmlns="http://www.w3.org/2000/svg" xmlns:xlink="http://www.w3.org/1999/xlink" version="1.1"><rect width="540" height="960" fill="#ffffff"></rect><g><g transform="translate(224 648)"><path d="M57.3 -73.4C69.9 -57.7 72.8 -35.5 77 -13.3C81.3 8.9 86.9 31.2 79.1 46.5C71.3 61.9 50 70.4 29.7 74.7C9.5 79 -9.7 79.2 -25.6 72.5C-41.5 65.8 -54.2 52.2 -67.4 35.8C-80.7 19.4 -94.5 0.1 -93.2 -18.1C-92 -36.2 -75.6 -53.4 -57.5 -68.1C-39.4 -82.8 -19.7 -95.1 1.3 -96.6C22.4 -98.2 44.7 -89.1 57.3 -73.4Z" fill="none" stroke="#F6ECFE" stroke-width="20"></path></g><g transform="translate(73 824)"><path d="M33.2 -37.4C42.9 -31.5 50.4 -20.9 53.3 -8.8C56.2 3.3 54.5 16.9 48.1 27.5C41.7 38.2 30.6 45.9 18.4 50.2C6.2 54.5 -7.1 55.3 -17.3 50.4C-27.5 45.4 -34.5 34.7 -41.2 23.5C-47.9 12.4 -54.4 0.8 -54.6 -11.7C-54.9 -24.2 -48.9 -37.7 -38.8 -43.6C-28.7 -49.5 -14.3 -47.7 -1.3 -46.1C11.8 -44.6 23.6 -43.4 33.2 -37.4Z" fill="none" stroke="#F6ECFE" stroke-width="20"></path></g><g transform="translate(532 417)"><path d="M34.4 -41.7C43 -33.9 47.1 -21.4 48.6 -9.2C50 3.1 48.8 15.3 43.1 24.4C37.3 33.5 26.9 39.5 15.4 44.8C3.9 50 -8.8 54.6 -18.9 51.3C-29.1 47.9 -36.6 36.7 -41.4 25.4C-46.2 14 -48.3 2.6 -47 -9C-45.8 -20.5 -41.3 -32.2 -32.9 -40.1C-24.5 -47.9 -12.3 -52 0.3 -52.4C12.9 -52.8 25.9 -49.5 34.4 -41.7Z" fill="none" stroke="#F6ECFE" stroke-width="20"></path></g><g transform="translate(487 698)"><path d="M49.4 -56C63.3 -47.2 73.3 -30.9 74 -14.8C74.8 1.3 66.1 17.2 56.2 30.6C46.3 44 35.1 54.9 21.3 60.9C7.5 67 -8.9 68.2 -26.3 65C-43.7 61.8 -62.1 54.1 -72.1 40C-82.2 25.9 -83.9 5.4 -80.6 -14.4C-77.3 -34.2 -69 -53.3 -54.7 -62C-40.5 -70.8 -20.2 -69.2 -1.3 -67.7C17.7 -66.2 35.5 -64.8 49.4 -56Z" fill="none" stroke="#F6ECFE" stroke-width="20"></path></g><g transform="translate(153 193)"><path d="M28.3 -34.4C36.9 -26.5 44.2 -17.8 45.6 -8.3C47 1.2 42.4 11.5 36.3 19.8C30.1 28.2 22.5 34.5 14 37C5.4 39.6 -4 38.3 -12.6 35C-21.2 31.7 -29 26.5 -33.5 19.1C-38.1 11.8 -39.4 2.3 -38.2 -7.2C-37.1 -16.6 -33.4 -26.1 -26.6 -34.2C-19.9 -42.4 -9.9 -49.3 0 -49.2C9.9 -49.2 19.7 -42.2 28.3 -34.4Z" stroke="#F6ECFE" fill="none" stroke-width="20"></path></g><g transform="translate(302 879)"><path d="M33.6 -37.7C43.1 -32 50.2 -21.1 51.6 -9.6C53.1 1.9 48.9 13.9 41.7 22C34.5 30.2 24.4 34.6 14.2 37.6C4.1 40.7 -6 42.4 -16.2 40.5C-26.5 38.5 -37 33 -41.8 24.3C-46.7 15.6 -45.9 3.8 -42.4 -6C-38.9 -15.8 -32.7 -23.7 -25.2 -29.7C-17.7 -35.7 -8.8 -39.9 1.6 -41.8C12 -43.7 24.1 -43.3 33.6 -37.7Z" stroke="#F6ECFE" fill="none" stroke-width="20"></path></g><g transform="translate(5 441)"><path d="M57.5 -68.2C73.1 -55.4 83.5 -36 85.8 -16.1C88.1 3.8 82.5 24 70.6 37.3C58.8 50.5 40.8 56.6 23 62.9C5.2 69.3 -12.4 75.8 -28.8 72.6C-45.3 69.5 -60.7 56.7 -67.5 40.9C-74.2 25.1 -72.4 6.4 -69.5 -12.6C-66.6 -31.6 -62.7 -50.8 -50.9 -64.3C-39.2 -77.8 -19.6 -85.5 0.7 -86.3C20.9 -87.1 41.8 -80.9 57.5 -68.2Z" stroke="#F6ECFE" fill="none" stroke-width="20"></path></g><g transform="translate(489 189)"><path d="M52.7 -66.2C64.9 -52.6 69 -32.7 72.8 -12.7C76.5 7.4 79.9 27.7 71.2 39.6C62.6 51.6 42 55.1 23.3 60.2C4.6 65.4 -12.1 72.2 -27.5 69.3C-42.9 66.4 -57.1 53.8 -66.7 38C-76.3 22.3 -81.4 3.5 -79.3 -14.9C-77.1 -33.3 -67.7 -51.4 -53.3 -64.7C-38.9 -77.9 -19.4 -86.4 0.4 -86.8C20.2 -87.3 40.5 -79.9 52.7 -66.2Z" stroke="#F6ECFE" fill="none" stroke-width="20"></path></g><g transform="translate(308 20)"><path d="M28.3 -36.2C35.9 -27.3 40.9 -17.7 44.3 -6.6C47.8 4.6 49.8 17.2 46.2 29.7C42.6 42.2 33.5 54.6 21.1 60C8.7 65.5 -7 63.9 -17.6 56.5C-28.2 49.1 -33.7 35.9 -40.4 23.6C-47.2 11.3 -55.3 0.1 -54.2 -10.2C-53.2 -20.5 -43.1 -29.9 -32.5 -38.3C-22 -46.7 -11 -54.2 -0.3 -53.8C10.3 -53.4 20.6 -45.1 28.3 -36.2Z" stroke="#F6ECFE" fill="none" stroke-width="20"></path></g><g transform="translate(300 415)"><path d="M58.3 -64.4C76 -54.7 91 -36.7 94.1 -16.9C97.3 2.9 88.6 24.6 76.3 42.4C64 60.2 48.1 74.3 29.1 82.2C10 90.2 -12.1 92.1 -28.6 83.8C-45.1 75.5 -55.9 57 -63.2 39.1C-70.5 21.1 -74.2 3.7 -72.2 -13.5C-70.1 -30.7 -62.2 -47.7 -49.2 -58.3C-36.2 -68.9 -18.1 -73 1.1 -74.3C20.3 -75.7 40.6 -74.2 58.3 -64.4Z" stroke="#F6ECFE" fill="none" stroke-width="20"></path></g><g transform="translate(538 934)"><path d="M50.8 -61.6C63.4 -49.9 69.6 -31.6 72.3 -13.2C74.9 5.2 74.1 23.7 66 38.5C57.9 53.3 42.7 64.4 27.2 66.5C11.7 68.5 -4.1 61.6 -18.6 54.7C-33 47.9 -46.2 41.1 -56 29.6C-65.8 18.2 -72.3 2.1 -69.6 -12.1C-66.8 -26.3 -54.8 -38.6 -41.7 -50.2C-28.5 -61.8 -14.3 -72.5 2.4 -75.4C19.1 -78.3 38.1 -73.2 50.8 -61.6Z" stroke="#F6ECFE" fill="none" stroke-width="20"></path></g><g transform="translate(19 3)"><path d="M41.5 -48.4C55.3 -37.9 69 -26.2 71 -12.8C73.1 0.6 63.5 15.9 54 30C44.4 44.1 35 57.1 21.5 64C8.1 71 -9.2 72.1 -23.4 66.1C-37.6 60.2 -48.6 47.3 -53.5 33.5C-58.4 19.7 -57.1 4.9 -54.4 -9.4C-51.6 -23.7 -47.4 -37.6 -38.1 -48.9C-28.8 -60.3 -14.4 -69 -0.3 -68.7C13.9 -68.4 27.7 -59 41.5 -48.4Z" stroke="#F6ECFE" fill="none" stroke-width="20"></path></g></g></svg>