<svg id="visual" viewBox="0 0 900 600" width="900" height="600" xmlns="http://www.w3.org/2000/svg" xmlns:xlink="http://www.w3.org/1999/xlink" version="1.1"><rect width="900" height="600" fill="#ffffff"></rect><g><g transform="translate(653 540)"><path d="M59.4 -72C77 -55.9 91.6 -37.3 96.8 -15.8C102.1 5.6 98.1 30 85.7 47.8C73.4 65.6 52.8 76.9 31.2 84.1C9.6 91.2 -12.8 94.1 -31.2 87C-49.6 79.8 -64 62.5 -73.1 43.6C-82.3 24.8 -86.3 4.4 -81.4 -12.8C-76.5 -30 -62.6 -44.1 -47.6 -60.7C-32.5 -77.3 -16.3 -96.4 2.3 -99.2C20.8 -101.9 41.7 -88.2 59.4 -72Z" fill="none" stroke="#F6ECFE" stroke-width="20"></path></g><g transform="translate(659 36)"><path d="M27.6 -33.6C36.1 -25.8 43.6 -17.4 45.5 -7.8C47.3 1.7 43.7 12.4 38.6 23.2C33.5 34 26.8 44.8 17.6 48.1C8.3 51.4 -3.7 47.2 -14.5 42.2C-25.3 37.2 -35 31.5 -39.5 23.1C-44 14.7 -43.4 3.6 -40.2 -5.8C-37.1 -15.1 -31.3 -22.7 -24.1 -30.8C-17 -38.9 -8.5 -47.5 0.5 -48.1C9.6 -48.8 19.1 -41.5 27.6 -33.6Z" fill="none" stroke="#F6ECFE" stroke-width="20"></path></g><g transform="translate(490 322)"><path d="M46.1 -58.4C59.5 -43.7 70 -28.9 78.4 -9.6C86.8 9.7 93.1 33.5 86.1 53.4C79 73.3 58.7 89.3 38 91C17.3 92.8 -3.7 80.2 -22.8 70C-41.9 59.8 -59.1 51.9 -70.6 37.9C-82.1 23.8 -87.9 3.7 -85.5 -16C-83.1 -35.6 -72.5 -54.7 -56.9 -69C-41.3 -83.3 -20.6 -92.8 -2.1 -90.2C16.3 -87.7 32.7 -73.1 46.1 -58.4Z" fill="none" stroke="#F6ECFE" stroke-width="20"></path></g><g transform="translate(417 31)"><path d="M51.2 -56.5C68.8 -46.2 87.3 -32.4 89 -16.6C90.8 -0.7 75.8 17.2 63.4 34.7C51 52.2 41.2 69.3 25.5 78.9C9.7 88.6 -12 90.7 -30.4 83.9C-48.7 77 -63.6 61.1 -69.7 43.6C-75.9 26 -73.3 6.8 -70.5 -13C-67.8 -32.8 -64.7 -53.2 -52.9 -64.5C-41.1 -75.8 -20.6 -78.1 -1.9 -75.8C16.8 -73.6 33.6 -66.8 51.2 -56.5Z" fill="none" stroke="#F6ECFE" stroke-width="20"></path></g><g transform="translate(148 325)"><path d="M46.3 -55.6C59 -44.6 67.6 -29 70.5 -12.4C73.5 4.2 70.8 21.8 62 34.5C53.1 47.1 37.9 54.9 21.7 61.6C5.5 68.3 -11.8 74 -25.1 69.1C-38.5 64.2 -48 48.7 -54.9 33.3C-61.8 18 -66.2 2.8 -63.5 -11C-60.9 -24.9 -51.3 -37.3 -39.6 -48.4C-27.8 -59.6 -13.9 -69.5 1.5 -71.2C16.8 -72.9 33.6 -66.5 46.3 -55.6Z" stroke="#F6ECFE" fill="none" stroke-width="20"></path></g><g transform="translate(179 563)"><path d="M42.5 -53.8C52 -42.6 54.6 -26.4 59.2 -9.1C63.8 8.1 70.4 26.3 64.5 38C58.6 49.6 40.2 54.8 23.4 58.3C6.6 61.8 -8.6 63.7 -22.3 59.5C-36 55.3 -48.1 45 -57.5 31.7C-67 18.4 -73.7 2.1 -71.5 -13C-69.4 -28.2 -58.2 -42.1 -44.8 -52.6C-31.4 -63.1 -15.7 -70.1 0.4 -70.6C16.5 -71 32.9 -65 42.5 -53.8Z" stroke="#F6ECFE" fill="none" stroke-width="20"></path></g><g transform="translate(847 218)"><path d="M39.5 -43.3C52.8 -35.9 66.2 -25 71.8 -10.1C77.5 4.7 75.2 23.4 65.6 35.7C55.9 48 38.8 53.8 22.5 58.1C6.3 62.3 -9.2 65 -25.4 62.3C-41.6 59.7 -58.6 51.6 -67.6 38C-76.7 24.4 -77.9 5.2 -74.7 -13.2C-71.5 -31.7 -63.9 -49.5 -50.8 -56.8C-37.6 -64.2 -18.8 -61.2 -2.9 -57.8C13.1 -54.4 26.2 -50.6 39.5 -43.3Z" stroke="#F6ECFE" fill="none" stroke-width="20"></path></g><g transform="translate(42 89)"><path d="M55.9 -70.3C68.8 -55.8 73 -34.7 73.5 -15.4C74 4 71 21.6 63.3 38.1C55.6 54.5 43.3 69.9 27.3 76.2C11.3 82.6 -8.4 79.9 -27.5 73.7C-46.6 67.5 -65 57.9 -75.5 42.3C-86 26.8 -88.4 5.4 -85.3 -15.5C-82.2 -36.4 -73.5 -56.8 -58.4 -70.9C-43.2 -85 -21.6 -92.7 0 -92.6C21.5 -92.6 43.1 -84.8 55.9 -70.3Z" stroke="#F6ECFE" fill="none" stroke-width="20"></path></g><g transform="translate(888 453)"><path d="M29.3 -36.1C37.4 -28.1 43.1 -18.3 43.2 -9C43.2 0.4 37.6 9.4 31.9 17.6C26.2 25.7 20.4 33 12.4 37.3C4.4 41.6 -5.8 42.9 -14.9 40C-23.9 37.1 -31.7 29.9 -35.3 21.5C-38.8 13 -38.1 3.2 -36.9 -7C-35.7 -17.2 -33.9 -27.8 -27.7 -36.1C-21.4 -44.4 -10.7 -50.4 -0.1 -50.4C10.6 -50.3 21.2 -44 29.3 -36.1Z" stroke="#F6ECFE" fill="none" stroke-width="20"></path></g><g transform="translate(416 556)"><path d="M30.4 -37.1C39.5 -28.7 47 -19.1 48.8 -8.6C50.6 1.9 46.8 13.4 41.1 24.1C35.4 34.9 27.7 44.9 17.4 49.4C7.1 53.8 -5.9 52.7 -19.6 49.6C-33.3 46.4 -47.8 41.2 -53.7 31C-59.5 20.8 -56.6 5.7 -54.1 -9.7C-51.6 -25.1 -49.4 -40.7 -40.5 -49.2C-31.5 -57.7 -15.8 -59 -2.5 -56C10.7 -53 21.4 -45.6 30.4 -37.1Z" stroke="#F6ECFE" fill="none" stroke-width="20"></path></g></g></svg>